{"asset":{"version":"2.0","generator":"gltfpack 0.23"},"extensionsUsed":["KHR_mesh_quantization","EXT_meshopt_compression","KHR_texture_transform","KHR_texture_basisu"],"extensionsRequired":["KHR_mesh_quantization","KHR_texture_basisu"],"buffers":[{"uri":"DamagedHelmet.bin","byteLength":147228},{"uri":"DamagedHelmet.fallback.bin","byteLength":322328,"extensions":{"EXT_meshopt_compression":{"fallback":true}}}],"bufferViews":[{"buffer":1,"byteOffset":0,"byteLength":57404,"byteStride":4,"target":34962,"extensions":{"EXT_meshopt_compression":{"buffer":0,"byteOffset":0,"byteLength":34570,"byteStride":4,"mode":"ATTRIBUTES","count":14351}}},{"buffer":1,"byteOffset":57404,"byteLength":114808,"byteStride":8,"target":34962,"extensions":{"EXT_meshopt_compression":{"buffer":0,"byteOffset":34572,"byteLength":61041,"byteStride":8,"mode":"ATTRIBUTES","count":14351}}},{"buffer":1,"byteOffset":172212,"byteLength":57404,"byteStride":4,"target":34962,"extensions":{"EXT_meshopt_compression":{"buffer":0,"byteOffset":95616,"byteLength":35025,"byteStride":4,"mode":"ATTRIBUTES","count":14351}}},{"buffer":1,"byteOffset":229616,"byteLength":92712,"target":34963,"extensions":{"EXT_meshopt_compression":{"buffer":0,"byteOffset":130644,"byteLength":16583,"byteStride":2,"mode":"TRIANGLES","count":46356}}}],"accessors":[{"bufferView":0,"byteOffset":0,"componentType":5120,"count":14351,"type":"VEC3","normalized":true},{"bufferView":1,"byteOffset":0,"componentType":5123,"count":14351,"type":"VEC3","min":[0,0,0],"max":[15482,16383,14761]},{"bufferView":2,"byteOffset":0,"componentType":5123,"count":14351,"type":"VEC2","normalized":true},{"bufferView":3,"byteOffset":0,"componentType":5123,"count":46356,"type":"SCALAR"}],"samplers":[{}],"images":[{"uri":"Default_albedo.ktx2"},{"uri":"Default_metalRoughness.ktx2"},{"uri":"Default_emissive.ktx2"},{"uri":"Default_AO.ktx2"},{"uri":"Default_normal.ktx2"}],"textures":[{"sampler":0,"extensions":{"KHR_texture_basisu":{"source":0}}},{"sampler":0,"extensions":{"KHR_texture_basisu":{"source":1}}},{"sampler":0,"extensions":{"KHR_texture_basisu":{"source":2}}},{"sampler":0,"extensions":{"KHR_texture_basisu":{"source":3}}},{"sampler":0,"extensions":{"KHR_texture_basisu":{"source":4}}}],"materials":[{"name":"Material_MR","pbrMetallicRoughness":{"baseColorTexture":{"index":0,"extensions":{"KHR_texture_transform":{"offset":[0.00244864007,1.00055313],"scale":[15.9640923,15.9734621]}}},"metallicRoughnessTexture":{"index":1,"extensions":{"KHR_texture_transform":{"offset":[0.00244864007,1.00055313],"scale":[15.9640923,15.9734621]}}}},"normalTexture":{"index":4,"extensions":{"KHR_texture_transform":{"offset":[0.00244864007,1.00055313],"scale":[15.9640923,15.9734621]}}},"occlusionTexture":{"index":3,"extensions":{"KHR_texture_transform":{"offset":[0.00244864007,1.00055313],"scale":[15.9640923,15.9734621]}}},"emissiveTexture":{"index":2,"extensions":{"KHR_texture_transform":{"offset":[0.00244864007,1.00055313],"scale":[15.9640923,15.9734621]}}},"emissiveFactor":[1,1,1]}],"meshes":[{"primitives":[{"attributes":{"NORMAL":0,"POSITION":1,"TEXCOORD_0":2},"indices":3,"material":0}]}],"nodes":[{"mesh":0,"translation":[-0.947458565,-1.18715501,-0.900994956],"scale":[0.000122077763,0.000122077763,0.000122077763]},{"name":"node_damagedHelmet_-6514","rotation":[0.707106829,0,-0,0.707106829],"children":[0]}],"scenes":[{"name":"Scene","nodes":[1]}],"scene":0}