{"asset":{"version":"2.0","generator":"gltfpack 0.23"},"extensionsUsed":["KHR_mesh_quantization","EXT_meshopt_compression","KHR_texture_transform","KHR_texture_basisu"],"extensionsRequired":["KHR_mesh_quantization","KHR_texture_basisu"],"buffers":[{"uri":"BoxTextured.bin","byteLength":336},{"uri":"BoxTextured.fallback.bin","byteLength":456,"extensions":{"EXT_meshopt_compression":{"fallback":true}}}],"bufferViews":[{"buffer":1,"byteOffset":0,"byteLength":96,"byteStride":4,"target":34962,"extensions":{"EXT_meshopt_compression":{"buffer":0,"byteOffset":0,"byteLength":70,"byteStride":4,"mode":"ATTRIBUTES","count":24}}},{"buffer":1,"byteOffset":96,"byteLength":192,"byteStride":8,"target":34962,"extensions":{"EXT_meshopt_compression":{"buffer":0,"byteOffset":72,"byteLength":120,"byteStride":8,"mode":"ATTRIBUTES","count":24}}},{"buffer":1,"byteOffset":288,"byteLength":96,"byteStride":4,"target":34962,"extensions":{"EXT_meshopt_compression":{"buffer":0,"byteOffset":192,"byteLength":109,"byteStride":4,"mode":"ATTRIBUTES","count":24}}},{"buffer":1,"byteOffset":384,"byteLength":72,"target":34963,"extensions":{"EXT_meshopt_compression":{"buffer":0,"byteOffset":304,"byteLength":29,"byteStride":2,"mode":"TRIANGLES","count":36}}}],"accessors":[{"bufferView":0,"byteOffset":0,"componentType":5120,"count":24,"type":"VEC3","normalized":true},{"bufferView":1,"byteOffset":0,"componentType":5123,"count":24,"type":"VEC3","min":[0,0,0],"max":[16383,16383,16383]},{"bufferView":2,"byteOffset":0,"componentType":5123,"count":24,"type":"VEC2","normalized":true},{"bufferView":3,"byteOffset":0,"componentType":5123,"count":36,"type":"SCALAR"}],"samplers":[{"magFilter":9729,"minFilter":9986}],"images":[{"uri":"CesiumLogoFlat.ktx2"}],"textures":[{"sampler":0,"extensions":{"KHR_texture_basisu":{"source":0}}}],"materials":[{"name":"Texture","pbrMetallicRoughness":{"baseColorTexture":{"index":0,"extensions":{"KHR_texture_transform":{"offset":[0,0],"scale":[96.0219803,16.003664]}}},"metallicFactor":0}}],"meshes":[{"primitives":[{"attributes":{"NORMAL":0,"POSITION":1,"TEXCOORD_0":2},"indices":3,"material":0}]}],"nodes":[{"mesh":0,"translation":[-0.5,-0.5,-0.5],"scale":[6.10388815e-05,6.10388815e-05,6.10388815e-05]},{"matrix":[1,0,0,0,0,0,-1,0,0,1,0,0,0,0,0,1],"children":[2]},{"children":[0]}],"scenes":[{"nodes":[1]}],"scene":0}