{
  "asset": { "version": "2.0", "generator": "gltfpack 0.23" },
  "extensionsUsed": [
    "KHR_mesh_quantization",
    "EXT_meshopt_compression",
    "KHR_texture_transform",
    "KHR_texture_basisu"
  ],
  "extensionsRequired": ["KHR_mesh_quantization", "KHR_texture_basisu"],
  "buffers": [
    { "uri": "MetalRoughSpheres.bin", "byteLength": 2432032 },
    {
      "uri": "MetalRoughSpheres.fallback.bin",
      "byteLength": 10115872,
      "extensions": { "EXT_meshopt_compression": { "fallback": true } }
    }
  ],
  "bufferViews": [
    {
      "buffer": 1,
      "byteOffset": 0,
      "byteLength": 1023640,
      "byteStride": 4,
      "target": 34962,
      "extensions": {
        "EXT_meshopt_compression": {
          "buffer": 0,
          "byteOffset": 0,
          "byteLength": 629882,
          "byteStride": 4,
          "mode": "ATTRIBUTES",
          "count": 255910
        }
      }
    },
    {
      "buffer": 1,
      "byteOffset": 1023640,
      "byteLength": 2047280,
      "byteStride": 8,
      "target": 34962,
      "extensions": {
        "EXT_meshopt_compression": {
          "buffer": 0,
          "byteOffset": 629884,
          "byteLength": 924854,
          "byteStride": 8,
          "mode": "ATTRIBUTES",
          "count": 255910
        }
      }
    },
    {
      "buffer": 1,
      "byteOffset": 3070920,
      "byteLength": 1023640,
      "byteStride": 4,
      "target": 34962,
      "extensions": {
        "EXT_meshopt_compression": {
          "buffer": 0,
          "byteOffset": 1554740,
          "byteLength": 277986,
          "byteStride": 4,
          "mode": "ATTRIBUTES",
          "count": 255910
        }
      }
    },
    {
      "buffer": 1,
      "byteOffset": 4094560,
      "byteLength": 6021312,
      "target": 34963,
      "extensions": {
        "EXT_meshopt_compression": {
          "buffer": 0,
          "byteOffset": 1832728,
          "byteLength": 599302,
          "byteStride": 4,
          "mode": "TRIANGLES",
          "count": 1505328
        }
      }
    }
  ],
  "accessors": [
    {
      "bufferView": 0,
      "byteOffset": 0,
      "componentType": 5120,
      "count": 255910,
      "type": "VEC3",
      "normalized": true
    },
    {
      "bufferView": 1,
      "byteOffset": 0,
      "componentType": 5123,
      "count": 255910,
      "type": "VEC3",
      "min": [0, 0, 0],
      "max": [16383, 6809, 15885]
    },
    {
      "bufferView": 2,
      "byteOffset": 0,
      "componentType": 5123,
      "count": 255910,
      "type": "VEC2",
      "normalized": true
    },
    {
      "bufferView": 3,
      "byteOffset": 0,
      "componentType": 5125,
      "count": 1505328,
      "type": "SCALAR"
    }
  ],
  "samplers": [
    { "magFilter": 9729, "minFilter": 9986, "wrapS": 33071, "wrapT": 33071 }
  ],
  "images": [
    { "uri": "Spheres_BaseColor.ktx2" },
    { "uri": "Spheres_MetalRough.ktx2" }
  ],
  "textures": [
    { "sampler": 0, "extensions": { "KHR_texture_basisu": { "source": 0 } } },
    { "sampler": 0, "extensions": { "KHR_texture_basisu": { "source": 1 } } }
  ],
  "materials": [
    {
      "pbrMetallicRoughness": {
        "baseColorTexture": {
          "index": 0,
          "extensions": {
            "KHR_texture_transform": {
              "offset": [0.00138562894, 0.0124560595],
              "scale": [15.773241, 15.7856417]
            }
          }
        },
        "metallicRoughnessTexture": {
          "index": 1,
          "extensions": {
            "KHR_texture_transform": {
              "offset": [0.00138562894, 0.0124560595],
              "scale": [15.773241, 15.7856417]
            }
          }
        }
      }
    }
  ],
  "meshes": [
    {
      "primitives": [
        {
          "attributes": { "NORMAL": 0, "POSITION": 1, "TEXCOORD_0": 2 },
          "indices": 3,
          "material": 0
        }
      ]
    }
  ],
  "nodes": [
    {
      "mesh": 0,
      "translation": [-12.1865892, -1, -12.3594494],
      "scale": [0.00146867603, 0.00146867603, 0.00146867603]
    },
    {
      "matrix": [
        0.400000006, 0, 0, 0, 0, 0, -0.400000006, 0, 0, 0.400000006, 0, 0, 0, 0,
        0, 1
      ],
      "children": [2]
    },
    { "children": [0] }
  ],
  "scenes": [{ "nodes": [1] }],
  "scene": 0
}
